<mxfile host="app.diagrams.net" modified="2024-02-06T07:50:14.146Z" agent="Mozilla/5.0 (Windows NT 10.0; Win64; x64) AppleWebKit/537.36 (KHTML, like Gecko) Chrome/121.0.0.0 Safari/537.36" etag="3oeyQnWMfs8AasVN1DTG" version="23.1.1" type="github">
  <diagram name="Page-1" id="p1dP2xAZ1xmv5R1cJQoU">
    <mxGraphModel dx="2610" dy="868" grid="1" gridSize="10" guides="1" tooltips="1" connect="1" arrows="1" fold="1" page="1" pageScale="1" pageWidth="850" pageHeight="1100" math="0" shadow="0">
      <root>
        <mxCell id="0" />
        <mxCell id="1" parent="0" />
        <mxCell id="VPapj86DT7ilaoLQwm5H-1" value="Pengguna" style="rounded=0;whiteSpace=wrap;html=1;" vertex="1" parent="1">
          <mxGeometry x="70" y="360" width="120" height="60" as="geometry" />
        </mxCell>
        <mxCell id="VPapj86DT7ilaoLQwm5H-2" value="Cuitan" style="rounded=0;whiteSpace=wrap;html=1;" vertex="1" parent="1">
          <mxGeometry x="620" y="360" width="120" height="60" as="geometry" />
        </mxCell>
        <mxCell id="VPapj86DT7ilaoLQwm5H-5" value="" style="group" vertex="1" connectable="0" parent="1">
          <mxGeometry x="320" y="350" width="190" height="90" as="geometry" />
        </mxCell>
        <mxCell id="VPapj86DT7ilaoLQwm5H-4" value="" style="rhombus;whiteSpace=wrap;html=1;" vertex="1" parent="VPapj86DT7ilaoLQwm5H-5">
          <mxGeometry width="190" height="90" as="geometry" />
        </mxCell>
        <mxCell id="VPapj86DT7ilaoLQwm5H-3" value="Memposting" style="rhombus;whiteSpace=wrap;html=1;" vertex="1" parent="VPapj86DT7ilaoLQwm5H-5">
          <mxGeometry x="10" y="5" width="170" height="80" as="geometry" />
        </mxCell>
        <mxCell id="VPapj86DT7ilaoLQwm5H-6" style="edgeStyle=orthogonalEdgeStyle;rounded=0;orthogonalLoop=1;jettySize=auto;html=1;entryX=-0.03;entryY=0.6;entryDx=0;entryDy=0;entryPerimeter=0;" edge="1" parent="1" source="VPapj86DT7ilaoLQwm5H-4" target="VPapj86DT7ilaoLQwm5H-2">
          <mxGeometry relative="1" as="geometry" />
        </mxCell>
        <mxCell id="VPapj86DT7ilaoLQwm5H-7" style="edgeStyle=orthogonalEdgeStyle;rounded=0;orthogonalLoop=1;jettySize=auto;html=1;entryX=1;entryY=0.583;entryDx=0;entryDy=0;entryPerimeter=0;" edge="1" parent="1" source="VPapj86DT7ilaoLQwm5H-4" target="VPapj86DT7ilaoLQwm5H-1">
          <mxGeometry relative="1" as="geometry" />
        </mxCell>
        <mxCell id="VPapj86DT7ilaoLQwm5H-24" style="edgeStyle=orthogonalEdgeStyle;rounded=0;orthogonalLoop=1;jettySize=auto;html=1;entryX=0;entryY=0;entryDx=0;entryDy=0;" edge="1" parent="1" source="VPapj86DT7ilaoLQwm5H-8" target="VPapj86DT7ilaoLQwm5H-1">
          <mxGeometry relative="1" as="geometry" />
        </mxCell>
        <mxCell id="VPapj86DT7ilaoLQwm5H-8" value="&lt;u&gt;Email&lt;/u&gt;" style="ellipse;whiteSpace=wrap;html=1;" vertex="1" parent="1">
          <mxGeometry x="-120" y="200" width="120" height="60" as="geometry" />
        </mxCell>
        <mxCell id="VPapj86DT7ilaoLQwm5H-25" style="edgeStyle=orthogonalEdgeStyle;rounded=0;orthogonalLoop=1;jettySize=auto;html=1;entryX=0;entryY=0.25;entryDx=0;entryDy=0;" edge="1" parent="1" source="VPapj86DT7ilaoLQwm5H-9" target="VPapj86DT7ilaoLQwm5H-1">
          <mxGeometry relative="1" as="geometry" />
        </mxCell>
        <mxCell id="VPapj86DT7ilaoLQwm5H-9" value="Password" style="ellipse;whiteSpace=wrap;html=1;" vertex="1" parent="1">
          <mxGeometry x="-120" y="320" width="120" height="60" as="geometry" />
        </mxCell>
        <mxCell id="VPapj86DT7ilaoLQwm5H-26" style="edgeStyle=orthogonalEdgeStyle;rounded=0;orthogonalLoop=1;jettySize=auto;html=1;entryX=0;entryY=0.5;entryDx=0;entryDy=0;" edge="1" parent="1" source="VPapj86DT7ilaoLQwm5H-10" target="VPapj86DT7ilaoLQwm5H-1">
          <mxGeometry relative="1" as="geometry" />
        </mxCell>
        <mxCell id="VPapj86DT7ilaoLQwm5H-10" value="Nama" style="ellipse;whiteSpace=wrap;html=1;" vertex="1" parent="1">
          <mxGeometry x="-120" y="440" width="120" height="60" as="geometry" />
        </mxCell>
        <mxCell id="VPapj86DT7ilaoLQwm5H-27" style="edgeStyle=orthogonalEdgeStyle;rounded=0;orthogonalLoop=1;jettySize=auto;html=1;entryX=0;entryY=1;entryDx=0;entryDy=0;" edge="1" parent="1" source="VPapj86DT7ilaoLQwm5H-11" target="VPapj86DT7ilaoLQwm5H-1">
          <mxGeometry relative="1" as="geometry" />
        </mxCell>
        <mxCell id="VPapj86DT7ilaoLQwm5H-11" value="Foto Profil" style="ellipse;whiteSpace=wrap;html=1;" vertex="1" parent="1">
          <mxGeometry x="-120" y="540" width="120" height="60" as="geometry" />
        </mxCell>
        <mxCell id="VPapj86DT7ilaoLQwm5H-12" value="Nama Tengah" style="ellipse;whiteSpace=wrap;html=1;" vertex="1" parent="1">
          <mxGeometry x="-320" y="380" width="120" height="60" as="geometry" />
        </mxCell>
        <mxCell id="VPapj86DT7ilaoLQwm5H-21" style="edgeStyle=orthogonalEdgeStyle;rounded=0;orthogonalLoop=1;jettySize=auto;html=1;entryX=0;entryY=0;entryDx=0;entryDy=0;" edge="1" parent="1" source="VPapj86DT7ilaoLQwm5H-13" target="VPapj86DT7ilaoLQwm5H-10">
          <mxGeometry relative="1" as="geometry">
            <Array as="points">
              <mxPoint x="-260" y="370" />
              <mxPoint x="-130" y="370" />
              <mxPoint x="-130" y="449" />
            </Array>
          </mxGeometry>
        </mxCell>
        <mxCell id="VPapj86DT7ilaoLQwm5H-13" value="Nama Depan" style="ellipse;whiteSpace=wrap;html=1;" vertex="1" parent="1">
          <mxGeometry x="-320" y="282.5" width="120" height="60" as="geometry" />
        </mxCell>
        <mxCell id="VPapj86DT7ilaoLQwm5H-23" style="edgeStyle=orthogonalEdgeStyle;rounded=0;orthogonalLoop=1;jettySize=auto;html=1;entryX=0;entryY=1;entryDx=0;entryDy=0;" edge="1" parent="1" source="VPapj86DT7ilaoLQwm5H-14" target="VPapj86DT7ilaoLQwm5H-10">
          <mxGeometry relative="1" as="geometry" />
        </mxCell>
        <mxCell id="VPapj86DT7ilaoLQwm5H-14" value="Nama Belakang" style="ellipse;whiteSpace=wrap;html=1;" vertex="1" parent="1">
          <mxGeometry x="-320" y="490" width="120" height="60" as="geometry" />
        </mxCell>
        <mxCell id="VPapj86DT7ilaoLQwm5H-19" style="edgeStyle=orthogonalEdgeStyle;rounded=0;orthogonalLoop=1;jettySize=auto;html=1;entryX=1;entryY=0.25;entryDx=0;entryDy=0;" edge="1" parent="1" source="VPapj86DT7ilaoLQwm5H-15" target="VPapj86DT7ilaoLQwm5H-2">
          <mxGeometry relative="1" as="geometry" />
        </mxCell>
        <mxCell id="VPapj86DT7ilaoLQwm5H-15" value="Tanggal Posting" style="ellipse;whiteSpace=wrap;html=1;" vertex="1" parent="1">
          <mxGeometry x="850" y="280" width="120" height="60" as="geometry" />
        </mxCell>
        <mxCell id="VPapj86DT7ilaoLQwm5H-20" style="edgeStyle=orthogonalEdgeStyle;rounded=0;orthogonalLoop=1;jettySize=auto;html=1;entryX=1;entryY=0.5;entryDx=0;entryDy=0;" edge="1" parent="1" source="VPapj86DT7ilaoLQwm5H-16" target="VPapj86DT7ilaoLQwm5H-2">
          <mxGeometry relative="1" as="geometry">
            <Array as="points">
              <mxPoint x="820" y="380" />
              <mxPoint x="820" y="390" />
            </Array>
          </mxGeometry>
        </mxCell>
        <mxCell id="VPapj86DT7ilaoLQwm5H-16" value="Waktu Posting" style="ellipse;whiteSpace=wrap;html=1;" vertex="1" parent="1">
          <mxGeometry x="845" y="360" width="130" height="60" as="geometry" />
        </mxCell>
        <mxCell id="VPapj86DT7ilaoLQwm5H-18" style="edgeStyle=orthogonalEdgeStyle;rounded=0;orthogonalLoop=1;jettySize=auto;html=1;entryX=1;entryY=0.75;entryDx=0;entryDy=0;" edge="1" parent="1" source="VPapj86DT7ilaoLQwm5H-17" target="VPapj86DT7ilaoLQwm5H-2">
          <mxGeometry relative="1" as="geometry" />
        </mxCell>
        <mxCell id="VPapj86DT7ilaoLQwm5H-17" value="Isi Cuitan" style="ellipse;whiteSpace=wrap;html=1;" vertex="1" parent="1">
          <mxGeometry x="850" y="450" width="120" height="60" as="geometry" />
        </mxCell>
        <mxCell id="VPapj86DT7ilaoLQwm5H-22" style="edgeStyle=orthogonalEdgeStyle;rounded=0;orthogonalLoop=1;jettySize=auto;html=1;entryX=0;entryY=0.5;entryDx=0;entryDy=0;" edge="1" parent="1" source="VPapj86DT7ilaoLQwm5H-12" target="VPapj86DT7ilaoLQwm5H-10">
          <mxGeometry relative="1" as="geometry">
            <Array as="points">
              <mxPoint x="-160" y="410" />
              <mxPoint x="-160" y="470" />
              <mxPoint x="-124" y="470" />
              <mxPoint x="-124" y="478" />
              <mxPoint x="-120" y="478" />
            </Array>
          </mxGeometry>
        </mxCell>
      </root>
    </mxGraphModel>
  </diagram>
</mxfile>
